<svg width="1711" height="94" viewBox="0 0 1711 94" fill="none" xmlns="http://www.w3.org/2000/svg">
<path d="M49.4258 62.8524L49.9623 61.3872L51.0701 62.4875L66.6371 77.9496L59.1732 57.3159L58.6424 55.8488L60.1971 55.9795L82.0605 57.8174L63.0818 46.8096L61.7316 46.0261L63.0066 45.1264L80.9356 32.4804L59.3223 36.2478L57.7842 36.5163L58.1836 35.0075L63.7904 13.7931L49.6527 30.5746L48.6474 31.7686L47.9833 30.356L38.6424 10.5029L38.5997 32.4437L38.5963 34.0044L37.1802 33.3492L17.2639 24.1461L31.3335 40.98L32.334 42.1776L30.8286 42.5872L9.65394 48.3385L31.2546 52.1906L32.7907 52.4646L31.9001 53.7455L19.3753 71.7624L38.3999 60.8288L39.7526 60.0506L39.8938 61.6045L41.8807 83.4575L49.4258 62.8524Z" fill="black" stroke="black" stroke-width="2"/>
<path d="M170.131 54.5091L169.967 52.9528L171.449 53.4591L187.415 58.9199L175.284 47.1346L174.167 46.0502L175.618 45.4859L191.334 39.375L174.503 38.1513L172.953 38.039L173.697 36.6748L181.793 21.8485L168.155 31.7582L166.891 32.6757L166.586 31.1441L163.279 14.5536L159.205 30.9474L158.827 32.4674L157.606 31.4849L144.454 20.8838L151.844 36.1011L152.526 37.506L150.965 37.5385L134.108 37.883L149.519 44.8051L150.936 45.4421L149.769 46.4683L137.097 57.6129L153.312 52.9868L154.809 52.5595L154.574 54.0983L152.028 70.8191L161.451 56.8209L162.326 55.5222L163.137 56.861L171.893 71.3286L170.131 54.5091Z" fill="black" stroke="black" stroke-width="2"/>
<line x1="29" y1="46.0001" x2="1711" y2="46.0001" stroke="black" stroke-width="2"/>
</svg>
