<svg width="196" height="196" viewBox="0 0 196 196" fill="none" xmlns="http://www.w3.org/2000/svg">
<path d="M30 1.5H166C181.74 1.5 194.5 14.2599 194.5 30V166C194.5 181.74 181.74 194.5 166 194.5H30C14.2599 194.5 1.5 181.74 1.5 166V30C1.5 14.2599 14.2599 1.5 30 1.5Z" stroke="black" stroke-width="3"/>
<path d="M92.5286 106.218C92.7843 104.474 94.6347 101.183 95.4968 99.4552L98.9416 92.5412L112.972 64.3767L121.381 47.4836C122.655 44.9264 124.379 41.1607 125.77 38.8087C126.889 36.9207 128.375 35.2758 130.142 33.9712C133.812 31.2436 138.418 30.0873 142.941 30.7585C151.989 32.0895 158.659 40.8821 157.228 49.9288C156.987 51.4649 156.549 52.9639 155.923 54.3887C155.215 55.9901 154.267 57.7819 153.481 59.375L148.707 69.0296L133.589 99.5731L125.122 116.694C124.193 118.567 122.565 122.143 121.531 123.758C121.14 124.368 117.339 127.66 116.53 128.377L106.633 137.202L96.7498 146.015C95.1278 147.465 93.4414 149.044 91.7494 150.41C91.0752 150.955 90.3256 151.201 89.451 151.052C88.7039 150.922 88.0392 150.502 87.6022 149.884C86.7068 148.609 87.2542 146.422 87.4618 144.941C87.699 143.295 87.9214 141.646 88.1287 139.995L90.7529 119.87C90.8613 119.068 91.5461 114.506 91.5272 113.891L91.6168 113.529L91.8738 111.453L91.9944 110.775C92.0851 109.856 92.1622 109.071 92.3242 108.157L92.3665 107.736L92.499 106.633L92.5286 106.218ZM102.328 106.557L101.987 106.727C100.83 107.062 99.7682 107.552 98.6016 107.872L98.4717 107.966C98.3321 108.524 98.1799 109.103 98.0535 109.663L97.9148 110.014C97.8919 110.583 96.9985 114.218 96.8114 115.017L94.1858 126.28C94.0616 126.811 93.0516 130.593 93.4536 130.763C94.3574 131.145 95.7582 131.454 96.7506 131.794C99.2067 132.636 100.483 134.07 102.307 135.811C102.997 135.224 104.065 133.987 104.705 133.28L108.798 128.741L113.376 123.729C114.207 122.818 115.402 121.578 116.118 120.614C116.102 120.236 115.962 118.808 115.882 118.427C115.638 117.268 115.432 112.357 114.796 111.766C112.772 111.502 109.414 114.702 107.207 112.423C105.959 111.132 105.537 106.882 104.545 106.052C104.159 105.96 103.881 106.097 103.491 106.218L103.198 106.249C102.84 106.421 102.714 106.511 102.328 106.557ZM130.076 93.6592L139.242 75.1205L141.953 69.6617C143.347 66.856 144.57 64.5199 144.176 61.2466C143.879 58.775 142.797 56.2636 140.978 54.527C140.783 54.3412 140.61 54.3452 140.379 54.3859C139.617 55.2336 136.334 62.1097 135.614 63.5566L124.259 86.3518L120.704 93.5015C120.174 94.5712 119.437 96.2061 118.857 97.1719L118.809 97.2509L118.546 97.7391C118.013 98.8328 117.423 100.107 116.835 101.151L116.787 101.28C116.398 102.062 116.007 102.882 115.608 103.656L115.381 104.078C115.319 104.594 115.299 104.735 115.684 105.13L116.044 105.075C121.375 103.264 119.938 109.325 121.061 110.54C121.397 110.664 121.236 110.664 121.561 110.56C121.958 110.18 122.282 109.552 122.492 109.04C123.833 105.784 126.046 102.46 127.292 99.2037L127.552 98.8185C127.694 98.4116 127.947 98.0027 128.161 97.6219L128.368 97.1556C128.852 96.1377 129.347 95.1256 129.854 94.1191L130.076 93.6592ZM147.118 52.9511C147.56 53.68 148.11 54.8817 148.81 55.2032C149.331 55.0856 149.93 53.4919 150.2 52.9952C153.054 47.7415 151.392 41.1919 146.245 38.0064C143.757 36.4568 140.752 35.9595 137.893 36.6239C137.372 36.7446 136.858 36.8988 136.357 37.0847C132.531 38.6778 131.059 40.7428 129.325 44.478C129.174 44.8028 129.116 45.128 129.188 45.4804C129.316 45.633 129.362 45.7602 129.585 45.743C130.868 45.6432 131.957 45.4405 133.267 45.4551C138.012 45.5007 142.514 47.5438 145.664 51.081C146.237 51.7152 146.631 52.2521 147.118 52.9511ZM110.015 101.683C110.421 101.28 110.515 101.021 110.773 100.515C110.92 100.126 111.439 99.1429 111.645 98.725L112.192 97.6318C112.625 96.8242 112.969 96.1017 113.352 95.2749L113.815 94.3971L113.954 94.06L114.377 93.2693C116.082 89.6812 117.975 86.0312 119.756 82.462L128.612 64.6787L132.24 57.3859C133.013 55.8584 133.798 54.3335 134.544 52.7939C134.712 52.4463 135.134 51.4589 134.503 51.3368C132.028 50.8573 129.363 51.5609 127.208 52.8118C125.991 53.5183 124.655 54.7137 123.853 55.8829C121.867 59.1814 120.151 62.9118 118.427 66.3779L109.249 84.8121L104.209 94.8835C103.56 96.1926 102.165 98.8451 101.789 100.09C102.928 101.696 106.154 97.2798 109.005 100.678C109.138 101.182 109.149 101.336 109.588 101.631L110.015 101.683Z" fill="black"/>
<path d="M76.5648 150.109C76.8414 149.968 77.2117 149.758 77.5317 149.815C78.2555 149.943 83.5941 156.577 84.5304 157.613C84.9665 155.856 85.5728 154.327 85.8839 152.489C87.1445 153.639 87.9952 154.085 89.7268 154.215C89.0721 156.353 88.4988 158.688 87.739 160.778C87.2725 162.062 85.9416 162.515 84.7234 162.977C83.6813 162.294 81.7577 160.501 80.611 159.577C81.2738 162.334 81.9733 165.081 82.6068 167.847C82.9578 169.361 82.2666 169.333 81.3478 169.895C79.5561 170.991 79.5283 170.403 78.4024 168.968C78.0662 168.539 77.6411 167.935 77.2925 167.462L73.6554 162.522C73.0033 161.636 72.1649 160.425 71.4555 159.612L71.3681 159.514C71.3086 160 71.2184 160.481 71.1198 160.96C70.479 164.082 69.8934 167.217 69.2182 170.33L66.7784 171.161L52.4923 176.008C50.2178 176.78 47.0033 177.769 44.8368 178.663C44.4127 177.568 43.7575 176.221 43.2653 175.136L65.7898 167.281L67.2501 159.545C67.5165 158.117 67.7827 156.376 68.209 155.006C68.4605 154.199 70.5355 153.363 71.3694 152.993C72.042 153.669 73.0069 155.037 73.5966 155.83C74.8196 157.463 76.0241 159.108 77.2095 160.767C76.8024 159.093 74.7361 152.395 74.7765 151.401C75.1098 150.731 75.8737 150.466 76.5648 150.109Z" fill="black"/>
</svg>
