<svg width="40" height="39" viewBox="0 0 40 39" fill="none" xmlns="http://www.w3.org/2000/svg">
<path d="M21.4979 26.205L21.8397 24.6825L23.0799 25.6288L29.618 30.619L25.8397 23.3134L25.1229 21.9276L26.6815 21.8554L34.8963 21.4745L27.3075 18.3065L25.868 17.706L27.0155 16.6483L33.0633 11.0761L25.2137 13.5282L23.7245 13.9931L23.9237 12.4462L24.9745 4.29092L20.5379 11.2138L19.6962 12.5273L18.8544 11.2138L14.4169 4.29092L15.4686 12.4462L15.6678 13.9931L14.1786 13.5282L6.32799 11.0761L12.3768 16.6483L13.5243 17.706L12.0848 18.3065L4.49498 21.4745L12.7108 21.8554L14.2694 21.9276L13.5526 23.3134L9.7733 30.619L16.3124 25.6288L17.5526 24.6825L17.8944 26.205L19.6962 34.2304L21.4979 26.205Z" fill="white" stroke="white" stroke-width="2"/>
</svg>
