<svg width="90" height="51" viewBox="0 0 90 51" fill="none" xmlns="http://www.w3.org/2000/svg">
<path d="M86.234 0.00268347C86.245 0.00176352 86.2553 0.00091995 86.2656 0C87.2671 0.00689963 88.2235 0.403169 88.9206 1.09995C89.5972 1.77282 90.0154 2.70933 89.9996 3.65366C89.9869 4.45562 89.7063 5.23191 89.1997 5.86583C88.5136 6.73266 87.4378 7.81176 86.6561 8.63618L82.7245 12.8155L69.103 27.3189L54.8824 42.4657C52.5799 44.9212 50.264 47.3792 47.9583 49.8324C46.9102 50.9481 45.2534 51.203 43.7904 50.8551C42.5231 50.5535 41.8333 49.5674 40.9821 48.7004C40.1583 47.8419 39.3477 46.958 38.5335 46.0884L30.9598 38.0209L13.9651 19.9364C10.7029 16.4634 7.17702 12.5579 3.84346 9.18156C2.4863 7.64662 0.154537 5.83218 0.0077543 3.89101C-0.0576931 2.89976 0.293258 1.925 0.980614 1.18873C2.1642 -0.0986648 4.50561 -0.402247 5.91897 0.707902C6.97854 1.54023 8.05921 2.85897 8.99271 3.85421L14.842 10.0886L35.6834 32.2698L41.754 38.7292C42.6893 39.7259 44.0567 41.285 45.0163 42.1453C45.9134 41.2792 46.9979 40.053 47.8642 39.1284L53.6122 32.996L74.5427 10.7385L80.7065 4.1699C81.7775 3.02495 82.9244 1.69968 84.1117 0.67992C84.6389 0.227228 85.5439 0.0730596 86.234 0.00268347Z" fill="black"/>
</svg>
