<svg width="196" height="196" viewBox="0 0 196 196" fill="none" xmlns="http://www.w3.org/2000/svg">
<path d="M30 1.5H166C181.74 1.5 194.5 14.2599 194.5 30V166C194.5 181.74 181.74 194.5 166 194.5H30C14.2599 194.5 1.5 181.74 1.5 166V30C1.5 14.2599 14.2599 1.5 30 1.5Z" stroke="black" stroke-width="3"/>
<path d="M90.0548 37.0225C95.327 36.8633 100.376 37.5294 105.237 39.6841C113.68 43.3395 120.269 50.2685 123.49 58.8772C126.618 67.3365 126.308 76.6824 122.625 84.9158C118.483 94.0125 111.743 99.5476 102.532 103.009C102.448 104.641 102.502 106.796 102.499 108.468C103.367 108.613 104.233 108.769 105.096 108.935C106.52 109.214 113.004 110.685 113.641 111.629C113.318 112.61 111.874 114.287 111.175 115.143C106.504 113.148 103.87 112.022 98.6509 111.348C86.5548 111.278 81.0504 110.274 70.1435 116.627C70.2414 114.949 70.2169 113.107 70.3001 111.373C72.5405 110.37 75.9938 109.55 78.4164 108.933C78.3429 106.635 78.4068 104.269 78.4417 101.964C74.2481 99.9019 68.4202 96.3312 65.8921 92.365C65.596 88.469 65.9554 84.6584 65.6195 80.8416C65.4713 79.1566 64.0277 77.765 63.7664 75.3769C63.2549 70.7042 64.6236 64.4182 62.5399 60.2338C62.2572 59.6662 61.1423 58.3296 60.7065 57.8003C62.1438 54.3444 64.1348 51.1454 66.6016 48.3286C72.6659 41.4413 80.943 37.6126 90.0548 37.0225ZM94.3044 95.5204C107.985 94.1796 117.97 81.9906 116.577 68.3325C115.182 54.6744 102.94 44.7483 89.2694 46.1922C75.6718 47.6283 65.7972 59.7756 67.1839 73.3611C68.5706 86.9465 80.6964 96.8541 94.3044 95.5204Z" fill="black"/>
<path d="M148.401 58.6181C149.664 58.5584 150.76 58.7864 151.952 59.1622C155.892 60.4039 161.308 61.3918 159.714 66.8959C158.654 70.5561 157.354 74.1595 156.142 77.7881L149.032 99.0044C147.968 102.181 146.728 105.356 145.8 108.572C144.834 111.918 145.919 113.938 147.515 116.789C148.325 118.237 149.095 119.8 149.393 121.447C150.067 125.201 149.696 143.133 148.653 146.695C148.218 148.18 147.323 149.23 145.944 149.945C144.998 150.435 143.873 150.754 142.8 150.716C139.991 150.617 130.083 146.801 126.761 145.705L115.274 141.876C111.615 140.652 106.169 139.658 105.149 135.571C104.965 134.833 104.75 133.221 105.044 132.508C106.708 128.475 109.877 125.038 112.238 121.371C114.572 117.925 116.702 114.591 119.608 111.741C122.569 108.841 128.147 108.512 129.794 105.094C131.376 101.812 132.845 96.7865 134.02 93.2833L141.884 69.9003C142.626 67.6807 143.351 65.4407 144.123 63.2309C145.055 60.5569 145.588 59.4162 148.401 58.6181ZM112.802 136.562C115.652 134.556 118.555 131.697 120.535 128.844C120.968 128.219 121.567 126.965 122.303 126.801C122.837 127.5 122.434 129.672 122.319 130.573C121.937 133.581 121.563 135.736 120.123 138.448C123.143 137.481 125.239 136.474 127.918 134.748C128.746 134.214 130.759 132.484 131.395 132.273L131.651 132.482C131.707 133.356 131.2 134.341 130.849 135.182C129.703 137.655 128.707 139.294 127.256 141.619C128.952 141.982 131.048 142.639 132.632 143.351C133.953 141.984 135.147 140.502 136.2 138.921C136.803 138.022 139.036 133.823 139.6 133.412C139.848 133.557 139.984 133.589 140.036 134.028C140.457 137.505 140.361 142.29 139.047 145.455C140.369 145.897 142.476 146.906 143.837 146.303C144.283 146.106 144.512 145.793 144.658 145.338C145.273 143.405 145.875 126.551 145.56 123.866C145.366 122.124 144.822 120.438 143.961 118.911C142.122 115.591 139.031 113.142 135.376 112.107C134.048 111.745 132.244 111.509 130.867 111.594C125.974 112.239 122.93 113.757 119.915 117.71C118.495 119.571 109.037 132.743 109.09 134.084C109.117 134.739 109.608 135.348 110.135 135.688C110.873 136.164 111.957 136.325 112.802 136.562Z" fill="black"/>
<path d="M38.9899 102.411C46.1998 102.186 53.6975 102.449 60.927 102.459C66.6644 102.467 65.8684 107.852 65.8728 111.982L65.8776 122.356L65.8889 138.95C65.8892 141.879 65.9239 144.801 65.8334 147.73C65.7428 150.656 64.4817 152.075 61.5873 152.647C58.9042 152.865 53.7796 152.715 50.8064 152.709C47.8204 152.702 42.3958 152.914 39.701 152.683C38.9945 152.627 38.3056 152.434 37.6726 152.115C36.5017 151.528 35.8255 150.702 35.4373 149.462C34.8261 147.511 34.948 110.99 35.2446 106.863C35.2992 106.103 35.4366 105.435 35.794 104.754C36.5059 103.399 37.5988 102.851 38.9899 102.411Z" fill="black"/>
<path d="M70.3382 141.375C79.4464 146.923 90.8684 147.898 101.242 146.063C102.843 145.908 107.162 144.029 108.516 144.365C114.364 145.815 120.908 148.504 126.664 150.204C124.293 152.073 121.759 153.724 119.09 155.136C106.13 162.007 87.389 162.412 73.4471 158.566C70.8223 157.842 68.3297 156.788 65.8215 155.741C72.0491 151.285 69.3629 147.409 70.3382 141.375Z" fill="black"/>
<path d="M44.4381 77.648C48.4244 77.4872 53.7384 77.4751 57.6794 77.8306C62.3987 78.2561 61.4943 84.6579 61.4663 88.2148L61.4457 98.0584C60.0373 97.9456 58.1053 97.9944 56.6561 97.99C51.0356 97.9859 45.2513 97.914 39.6437 98.0258L39.6069 87.9418C39.5948 83.4552 38.5764 78.1701 44.4381 77.648Z" fill="black"/>
<path d="M44.6539 54.9504C48.1639 54.4883 52.1379 58.0548 55.2548 59.6084C57.3166 60.6363 59.2472 62.0221 59.2948 64.629C59.348 67.5415 59.3164 70.644 59.3499 73.6054C57.8938 73.207 56.6571 73.2276 55.1722 73.3108C55.1015 70.3179 55.0943 67.3239 55.1503 64.3308C54.4449 63.9699 53.7042 63.5379 53.0075 63.1496C50.7575 61.7285 48.2999 60.5298 46.106 59.0635L46.156 73.2448C44.6074 73.1422 43.418 73.2765 41.9052 73.5241C42.1317 68.554 41.5363 62.4295 42.2271 57.5303C42.3943 56.3441 43.636 55.5038 44.6539 54.9504Z" fill="black"/>
</svg>
