<svg width="395" height="335" viewBox="0 0 395 335" fill="none" xmlns="http://www.w3.org/2000/svg">
<path d="M100 4H365C379.359 4 391 15.6406 391 30V235C391 288.019 348.019 331 295 331H30C15.6406 331 4 319.359 4 305V100C4 46.9807 46.9807 4 100 4Z" stroke="black" stroke-width="8"/>
<mask id="path-2-inside-1_283_164" fill="white">
<path d="M177.946 55.4798C180.191 55.733 185.705 57.7957 187.983 58.5924C200.396 62.9338 217.53 76.8217 222.892 89.035C234.384 82.9474 257.018 82.7786 269.79 86.1391C288.145 90.9681 303.101 100.4 312.881 116.918C322.21 132.777 324.915 151.663 320.403 169.485C315.43 188.67 305.26 203.072 287.954 213.229C287.838 213.621 287.715 214.01 287.581 214.396C284.098 224.593 272.49 230.657 262.206 227.035C259.571 238.673 248.09 245.677 236.662 241.612C233.834 254.402 221.252 260.574 209.091 256.028C208.456 255.785 207.718 255.214 207.14 254.813C204.407 260.391 202.461 262.453 197.13 265.631C193.727 267.614 190.315 269.58 186.893 271.528C179.862 275.544 174.36 279.121 165.936 276.927C160.731 275.591 156.278 272.227 153.571 267.591C150.173 261.803 150.078 257.513 151.711 251.215C141.027 249.669 132.631 236.037 136.858 225.871C134.307 224.981 131.578 223.766 129.376 222.197C123.985 218.302 120.851 212.013 120.992 205.373C121.034 203.862 121.672 201.145 121.496 200.083C120.054 199.425 118.574 198.763 117.149 198.079C110.795 195.026 106.339 187.793 106.08 180.803C105.979 178.058 106.561 174.182 108.031 171.838L107.961 171.735C95.3873 153.057 90.0478 133.068 94.1644 110.538C97.4283 92.676 107.132 75.5927 122.455 65.3224C136.095 56.07 152.614 52.0201 169.004 53.9103C171.962 54.2285 175.012 54.9037 177.946 55.4798ZM115.108 163.816C118.398 161.434 134.816 151.78 138.171 150.757C140.923 149.918 143.972 149.787 146.802 150.233C152.13 151.045 156.919 153.938 160.113 158.275C163.971 163.596 164.903 170.132 163.13 176.407C174.652 178.822 180.681 189.815 178.261 200.974C178.169 201.404 178.055 201.829 177.92 202.247C183.5 203.492 187.438 205.946 190.529 210.808C193.42 215.306 194.38 220.774 193.196 225.983C193.064 226.575 192.877 227.052 192.638 227.604C195.786 228.824 198.21 229.346 200.982 231.532C205.852 235.289 207.002 241.779 211.692 245.569C212.294 246.056 214.318 246.558 215.078 246.751C219.594 247.897 224.233 244.857 225.95 240.744C226.969 238.302 226.453 235.203 225.264 232.901C222.801 228.206 219.97 223.487 217.311 218.888L201.976 192.359C199.455 188.009 196.539 183.326 194.405 178.789C193.964 177.852 193.835 176.376 193.853 175.333C195.021 173.635 196.439 171.946 198.675 171.737C203.632 171.271 206.383 178.751 208.556 182.502L226.505 213.573C229.427 218.647 232.502 224.415 235.82 229.196C236.454 230.11 238.7 231.507 239.725 232.17C243.388 232.295 244.42 232.388 247.759 230.634C250.304 228.81 250.752 227.792 252.249 224.995C252.208 223.379 252.239 220.567 251.544 219.175C249.115 214.309 245.931 209.16 243.211 204.461L225.377 173.584C223.647 170.609 221.837 167.667 220.319 164.58C218.894 161.685 219.887 160.09 221.778 157.828C225.051 156.789 227.454 156.534 229.428 159.834C232.546 165.047 235.539 170.337 238.572 175.601L251.483 197.592C254.915 203.565 258.692 211.683 263.718 216.316C266.921 219.267 274.743 216.531 276.702 212.739C280.041 206.27 275.776 201.205 272.501 195.524L264.652 181.922L233.769 128.435C229.508 131.414 223.203 134.667 218.651 137.347C206.723 144.367 196.795 151.074 182.192 148.316C173.813 146.734 165.292 141.529 160.368 134.485C158.672 132.06 157.02 128.979 155.602 126.359C171.807 116.563 188.665 107.53 204.988 97.9035C207.694 96.3078 210.69 94.5933 213.481 93.1774C211.453 90.4864 209.432 87.4927 207.266 84.9795C199.338 75.6951 188.735 69.0769 176.906 66.0282C161.736 62.1024 145.638 64.218 132.013 71.9277C101.079 89.8379 95.8368 133.315 113.895 161.422C114.341 162.116 114.82 163.052 115.108 163.816ZM160.994 186.679C159.905 186.456 157.986 186.012 156.963 186.486C149.894 189.764 142.989 194.099 136.245 198.068C128.296 202.745 130.948 213.458 139.727 215.469C144.744 216.691 157.588 206.856 162.475 204.75C170.473 201.302 169.988 188.24 160.994 186.679ZM143.646 160.464C137.841 161.154 130.866 167.679 125.866 169.538C113.999 173.952 113.134 188.451 126.76 190.043C132.97 188.584 143.988 180.395 150.064 177.328C150.656 177.029 151.393 175.976 151.752 175.417C154.687 170.85 153.758 165.016 148.938 162.17C147.176 161.13 145.599 160.902 143.646 160.464ZM189.466 237.722C183.324 237.8 177.615 243.094 172.113 245.758C169.505 247.021 166.111 249.187 163.872 251.026C158.11 256.891 162.34 265.737 169.844 267.164C176.14 266.421 181.381 261.868 187.043 258.993C189.737 257.626 193.692 255.373 195.903 253.226C200.597 247.209 196.838 238.753 189.466 237.722ZM176.027 212.088C168.304 211.835 164.957 215.886 158.29 219.283C155.1 220.908 151.609 223.134 148.848 225.422C143.721 230.48 147.083 239.401 153.674 241.098C158.307 241.952 162.029 239.133 165.985 236.951C170.308 234.568 174.592 232.008 178.83 229.487C181.057 228.109 182.474 225.798 182.948 223.248C183.405 220.76 182.842 218.191 181.387 216.119C179.929 214.069 178.18 213.196 176.027 212.088ZM287.525 200.958C299.012 192.992 308.031 178.348 310.703 164.762C317.148 131.97 297.22 101.162 263.719 95.7293C254.541 93.2089 239.975 94.6219 230.933 97.3263C227.713 98.2892 217.861 102.614 215.481 104.299C211.202 107.326 171.38 128.856 170.568 130.316C171.323 132.049 177.197 135.609 179.103 136.401C190.869 141.288 199.495 135.962 209.538 130.17L224.674 121.434C228.617 119.156 236.399 113.082 239.965 118.594C243.988 124.812 247.421 131.531 251.251 137.885L274.733 178.574C278.781 185.588 283.827 193.842 287.525 200.958Z"/>
</mask>
<path d="M177.946 55.4798C180.191 55.733 185.705 57.7957 187.983 58.5924C200.396 62.9338 217.53 76.8217 222.892 89.035C234.384 82.9474 257.018 82.7786 269.79 86.1391C288.145 90.9681 303.101 100.4 312.881 116.918C322.21 132.777 324.915 151.663 320.403 169.485C315.43 188.67 305.26 203.072 287.954 213.229C287.838 213.621 287.715 214.01 287.581 214.396C284.098 224.593 272.49 230.657 262.206 227.035C259.571 238.673 248.09 245.677 236.662 241.612C233.834 254.402 221.252 260.574 209.091 256.028C208.456 255.785 207.718 255.214 207.14 254.813C204.407 260.391 202.461 262.453 197.13 265.631C193.727 267.614 190.315 269.58 186.893 271.528C179.862 275.544 174.36 279.121 165.936 276.927C160.731 275.591 156.278 272.227 153.571 267.591C150.173 261.803 150.078 257.513 151.711 251.215C141.027 249.669 132.631 236.037 136.858 225.871C134.307 224.981 131.578 223.766 129.376 222.197C123.985 218.302 120.851 212.013 120.992 205.373C121.034 203.862 121.672 201.145 121.496 200.083C120.054 199.425 118.574 198.763 117.149 198.079C110.795 195.026 106.339 187.793 106.08 180.803C105.979 178.058 106.561 174.182 108.031 171.838L107.961 171.735C95.3873 153.057 90.0478 133.068 94.1644 110.538C97.4283 92.676 107.132 75.5927 122.455 65.3224C136.095 56.07 152.614 52.0201 169.004 53.9103C171.962 54.2285 175.012 54.9037 177.946 55.4798ZM115.108 163.816C118.398 161.434 134.816 151.78 138.171 150.757C140.923 149.918 143.972 149.787 146.802 150.233C152.13 151.045 156.919 153.938 160.113 158.275C163.971 163.596 164.903 170.132 163.13 176.407C174.652 178.822 180.681 189.815 178.261 200.974C178.169 201.404 178.055 201.829 177.92 202.247C183.5 203.492 187.438 205.946 190.529 210.808C193.42 215.306 194.38 220.774 193.196 225.983C193.064 226.575 192.877 227.052 192.638 227.604C195.786 228.824 198.21 229.346 200.982 231.532C205.852 235.289 207.002 241.779 211.692 245.569C212.294 246.056 214.318 246.558 215.078 246.751C219.594 247.897 224.233 244.857 225.95 240.744C226.969 238.302 226.453 235.203 225.264 232.901C222.801 228.206 219.97 223.487 217.311 218.888L201.976 192.359C199.455 188.009 196.539 183.326 194.405 178.789C193.964 177.852 193.835 176.376 193.853 175.333C195.021 173.635 196.439 171.946 198.675 171.737C203.632 171.271 206.383 178.751 208.556 182.502L226.505 213.573C229.427 218.647 232.502 224.415 235.82 229.196C236.454 230.11 238.7 231.507 239.725 232.17C243.388 232.295 244.42 232.388 247.759 230.634C250.304 228.81 250.752 227.792 252.249 224.995C252.208 223.379 252.239 220.567 251.544 219.175C249.115 214.309 245.931 209.16 243.211 204.461L225.377 173.584C223.647 170.609 221.837 167.667 220.319 164.58C218.894 161.685 219.887 160.09 221.778 157.828C225.051 156.789 227.454 156.534 229.428 159.834C232.546 165.047 235.539 170.337 238.572 175.601L251.483 197.592C254.915 203.565 258.692 211.683 263.718 216.316C266.921 219.267 274.743 216.531 276.702 212.739C280.041 206.27 275.776 201.205 272.501 195.524L264.652 181.922L233.769 128.435C229.508 131.414 223.203 134.667 218.651 137.347C206.723 144.367 196.795 151.074 182.192 148.316C173.813 146.734 165.292 141.529 160.368 134.485C158.672 132.06 157.02 128.979 155.602 126.359C171.807 116.563 188.665 107.53 204.988 97.9035C207.694 96.3078 210.69 94.5933 213.481 93.1774C211.453 90.4864 209.432 87.4927 207.266 84.9795C199.338 75.6951 188.735 69.0769 176.906 66.0282C161.736 62.1024 145.638 64.218 132.013 71.9277C101.079 89.8379 95.8368 133.315 113.895 161.422C114.341 162.116 114.82 163.052 115.108 163.816ZM160.994 186.679C159.905 186.456 157.986 186.012 156.963 186.486C149.894 189.764 142.989 194.099 136.245 198.068C128.296 202.745 130.948 213.458 139.727 215.469C144.744 216.691 157.588 206.856 162.475 204.75C170.473 201.302 169.988 188.24 160.994 186.679ZM143.646 160.464C137.841 161.154 130.866 167.679 125.866 169.538C113.999 173.952 113.134 188.451 126.76 190.043C132.97 188.584 143.988 180.395 150.064 177.328C150.656 177.029 151.393 175.976 151.752 175.417C154.687 170.85 153.758 165.016 148.938 162.17C147.176 161.13 145.599 160.902 143.646 160.464ZM189.466 237.722C183.324 237.8 177.615 243.094 172.113 245.758C169.505 247.021 166.111 249.187 163.872 251.026C158.11 256.891 162.34 265.737 169.844 267.164C176.14 266.421 181.381 261.868 187.043 258.993C189.737 257.626 193.692 255.373 195.903 253.226C200.597 247.209 196.838 238.753 189.466 237.722ZM176.027 212.088C168.304 211.835 164.957 215.886 158.29 219.283C155.1 220.908 151.609 223.134 148.848 225.422C143.721 230.48 147.083 239.401 153.674 241.098C158.307 241.952 162.029 239.133 165.985 236.951C170.308 234.568 174.592 232.008 178.83 229.487C181.057 228.109 182.474 225.798 182.948 223.248C183.405 220.76 182.842 218.191 181.387 216.119C179.929 214.069 178.18 213.196 176.027 212.088ZM287.525 200.958C299.012 192.992 308.031 178.348 310.703 164.762C317.148 131.97 297.22 101.162 263.719 95.7293C254.541 93.2089 239.975 94.6219 230.933 97.3263C227.713 98.2892 217.861 102.614 215.481 104.299C211.202 107.326 171.38 128.856 170.568 130.316C171.323 132.049 177.197 135.609 179.103 136.401C190.869 141.288 199.495 135.962 209.538 130.17L224.674 121.434C228.617 119.156 236.399 113.082 239.965 118.594C243.988 124.812 247.421 131.531 251.251 137.885L274.733 178.574C278.781 185.588 283.827 193.842 287.525 200.958Z" fill="black" stroke="black" stroke-width="0.878938" mask="url(#path-2-inside-1_283_164)"/>
</svg>
