<svg width="1711" height="94" viewBox="0 0 1711 94" fill="none" xmlns="http://www.w3.org/2000/svg">
<path d="M1661.57 30.5351L1661.04 32.0004L1659.93 30.9L1644.36 15.438L1651.83 36.0716L1652.36 37.5387L1650.8 37.408L1628.94 35.5701L1647.92 46.578L1649.27 47.3614L1647.99 48.2611L1630.06 60.9071L1651.68 57.1397L1653.22 56.8712L1652.82 58.38L1647.21 79.5944L1661.35 62.813L1662.35 61.6189L1663.02 63.0315L1672.36 82.8846L1672.4 60.9438L1672.4 59.3832L1673.82 60.0383L1693.74 69.2415L1679.67 52.4075L1678.67 51.2099L1680.17 50.8003L1701.35 45.049L1679.75 41.1969L1678.21 40.923L1679.1 39.642L1691.62 21.6251L1672.6 32.5587L1671.25 33.3369L1671.11 31.783L1669.12 9.93004L1661.57 30.5351Z" fill="black" stroke="black" stroke-width="2"/>
<path d="M1540.87 38.8784L1541.03 40.4347L1539.55 39.9284L1523.59 34.4676L1535.72 46.2529L1536.83 47.3373L1535.38 47.9016L1519.67 54.0125L1536.5 55.2362L1538.05 55.3485L1537.3 56.7127L1529.21 71.539L1542.85 61.6293L1544.11 60.7119L1544.41 62.2434L1547.72 78.8339L1551.8 62.4402L1552.17 60.9201L1553.39 61.9026L1566.55 72.5037L1559.16 57.2864L1558.47 55.8815L1560.04 55.849L1576.89 55.5045L1561.48 48.5824L1560.06 47.9454L1561.23 46.9192L1573.9 35.7746L1557.69 40.4007L1556.19 40.8281L1556.43 39.2892L1558.97 22.5684L1549.55 36.5666L1548.67 37.8653L1547.86 36.5265L1539.11 22.0589L1540.87 38.8784Z" fill="black" stroke="black" stroke-width="2"/>
<line x1="1682" y1="47.3875" x2="8.74227e-08" y2="47.3876" stroke="black" stroke-width="2"/>
</svg>
