<svg width="66" height="40" viewBox="0 0 66 40" fill="none" xmlns="http://www.w3.org/2000/svg">
<path d="M0.0443265 0C0.416221 0.0456467 1.28351 0.0337442 1.68438 0.032836L4.60249 0.0253808L14.5361 0.0323109C15.1998 0.0289173 15.8658 0.017781 16.5297 0.0233255C18.6342 0.0408672 20.7307 -0.0262405 22.8201 0.277561C25.7972 0.710463 28.708 1.92853 30.4927 4.38012C32.1756 6.6918 32.5692 9.59885 32.1323 12.348C31.7935 14.4759 30.8403 16.2049 29.0334 17.471C28.4378 17.8882 27.8076 18.2126 27.222 18.6249C33.7837 20.4595 35.0287 28.4001 32.1833 33.6769C28.0085 40.8503 20.9187 39.9594 13.5785 39.9608L4.1527 39.9536L1.69208 39.9579C1.24588 39.9579 0.505276 39.9379 0.0838977 39.9919L0.0234464 40C0.0593767 38.8146 0.0236968 37.5518 0.0206151 36.3602C0.0364358 34.293 0.0368282 32.2259 0.021778 30.159L0.0342325 10.6098L0.036053 3.75856C0.0308318 2.77388 -0.0473981 0.897877 0.0443265 0ZM9.42687 33.1302C11.7422 33.0573 14.1109 33.134 16.4308 33.0968C18.0974 33.0701 19.616 33.232 21.2627 32.8154C22.0717 32.6132 22.8205 32.2283 23.4483 31.6916C24.7589 30.3607 25.0571 29.1166 25.0557 27.3417C25.0521 22.3078 20.2337 22.337 16.4327 22.3347L11.8329 22.3351C11.2257 22.3348 10.0222 22.3663 9.45872 22.31C9.36195 23.3229 9.39787 24.6363 9.39802 25.6728L9.39929 30.6778C9.40243 31.3098 9.48031 32.5897 9.42687 33.1302ZM9.43075 15.8385C10.8957 15.9173 12.8849 15.8672 14.3625 15.8386C17.0389 15.7869 20.8044 16.2684 22.9904 14.5066C23.9839 13.5427 24.1877 12.6826 24.2131 11.3511C24.2515 9.33333 23.4758 7.84869 21.3768 7.34185C19.4628 6.87964 17.5995 6.91344 15.6411 6.90622L11.8231 6.90321C11.2468 6.90588 9.96867 6.94264 9.44679 6.86062C9.37127 8.37791 9.39419 10.0559 9.39713 11.5832C9.39978 12.9446 9.36872 14.4854 9.43075 15.8385Z" fill="white"/>
<path d="M61.6421 36.5687C61.3221 36.8775 60.6808 37.3201 60.2926 37.5591C57.7168 39.145 54.9109 39.7119 51.9053 39.7238C48.4227 39.7798 45.4721 38.8955 42.5768 37.0663C37.9639 34.1521 36.8792 29.5449 36.9279 24.4627C36.9683 20.2539 37.8929 16.2957 41.0764 13.2004C43.8578 10.496 47.6768 9.36757 51.5515 9.38721C55.3477 9.4483 59.2096 10.4559 61.8987 13.1869C65.798 17.1474 66.0433 21.3916 65.9952 26.5009C61.3957 26.5947 56.4528 26.5177 51.8356 26.4952L46.5941 26.4936C45.918 26.4946 45.2492 26.5363 44.5751 26.5139C44.5697 27.1309 44.6294 27.7468 44.7532 28.3518C45.7049 33.0702 50.3164 34.6023 54.6857 33.2896C56.1618 32.8461 57.0274 31.6558 57.8361 30.4617C59.4677 30.3774 61.1582 30.452 62.7972 30.4276C63.7154 30.4138 64.6786 30.4194 65.5933 30.4589C65.3131 32.1879 64.2547 34.0555 62.9847 35.2806C62.8556 35.3351 62.8291 35.3528 62.6912 35.3226C62.361 35.5181 61.6715 36.1749 61.6421 36.5687ZM52.3617 21.6416L56.1927 21.6514C56.6535 21.6529 57.629 21.6906 58.0299 21.6358C58.1605 21.455 58.0525 21.0527 58.0127 20.8169C57.6992 18.9516 57.0446 17.7236 55.4438 16.5798C54.3206 15.7771 52.1134 15.2891 50.76 15.5021C46.706 15.9732 45.4707 18.0469 44.7014 21.6491L52.3617 21.6416Z" fill="white"/>
<path d="M43.1351 1.72851C44.8851 1.64377 47.1925 1.7201 49.0047 1.71876L59.6209 1.72015C59.6321 2.18756 59.6842 5.3193 59.5556 5.57402C59.3755 5.66024 59.3122 5.62306 59.0899 5.61374C58.9235 5.59816 58.7469 5.6167 58.5791 5.61445C57.4136 5.59916 56.2447 5.66163 55.0803 5.65504L43.1469 5.68166C43.0553 4.70406 43.1194 2.75831 43.1351 1.72851Z" fill="white"/>
<path d="M61.6421 36.5687C61.6715 36.1748 62.361 35.5181 62.6912 35.3226C62.8291 35.3527 62.8556 35.335 62.9847 35.2805C62.6495 35.6686 62.0602 36.2594 61.6421 36.5687Z" fill="black" fill-opacity="0.956863"/>
</svg>
