<svg width="49" height="49" viewBox="0 0 49 49" fill="none" xmlns="http://www.w3.org/2000/svg">
<path d="M5.71704 0.0482299C6.44421 -0.0426839 7.64202 0.0225572 8.40274 0.0240713L13.0835 0.0297327L28.1652 0.0276253L38.5216 0.0262431C40.0387 0.0261772 41.6078 0.00129205 43.1216 0.0477035C44.24 0.0820677 45.8716 0.84032 46.7295 1.6014C48.0597 2.76564 48.8643 4.41703 48.9623 6.18244C49.0136 6.9977 48.9827 8.14015 48.9808 8.98155L48.9788 13.7914L48.9768 29.0863L48.9748 38.683C48.9761 39.7823 49.0558 42.4721 48.9248 43.4084C48.7439 44.6573 48.1985 45.825 47.3571 46.7651C45.1051 49.3036 42.6749 48.9974 39.6539 48.9797L35.0927 48.977C34.1164 48.9744 32.8441 48.9408 31.9007 48.9988C31.8243 47.2384 31.9059 44.8446 31.9066 43.0404L31.9211 31.4704L35.7467 31.4939C36.448 31.5012 37.2197 31.5406 37.9157 31.482C39.1973 31.3743 39.0664 30.0405 39.1841 29.1037C39.3677 27.6447 39.4808 26.1458 39.7302 24.6923C39.5374 24.2364 39.3387 23.7667 38.7802 23.7056C38.0138 23.622 37.2085 23.6563 36.4361 23.6575L31.902 23.6724C31.8934 22.2608 31.8842 20.8475 31.8895 19.436C31.8954 17.9737 31.823 16.9423 33.0151 15.9332C34.6901 14.927 36.9848 15.7577 38.9466 15.2348C39.0006 15.1845 39.0532 15.1335 39.1059 15.0819C39.1749 15.0137 39.3519 14.8461 39.3565 14.7618C39.4493 13.0554 39.3953 10.8231 39.4111 9.14547C39.1269 8.74403 38.8736 8.50051 38.3322 8.51704C34.246 8.64199 30.0046 7.80283 26.8422 11.0938C24.4376 13.5952 24.2711 16.4688 24.2619 19.746C24.2586 21.0568 24.2678 22.3675 24.2876 23.6781C22.9284 23.6389 21.0566 23.5994 19.6997 23.7149C19.213 23.7563 18.9093 24.1179 18.6575 24.506C18.6421 26.0219 18.6267 27.495 18.7299 28.9812C18.7869 30.1753 18.3016 31.4774 20.0276 31.4906C21.4397 31.5014 22.8715 31.4849 24.2935 31.4702L24.2659 48.9902L12.3311 48.9718L8.10893 48.9876C6.16973 48.9856 4.67606 49.0606 2.99259 47.9277C0.831957 46.4728 -0.0848728 44.363 0.0197972 41.8115C0.0651915 40.7039 0.0222276 39.4496 0.0240697 38.3332L0.0292696 27.7003L0.0272298 12.9802L0.0236119 8.36773C0.0235461 8.08037 0.0436117 7.65951 0.0236119 7.38578C-0.256188 3.55931 1.96919 0.722875 5.71704 0.0482299Z" fill="white"/>
</svg>
