<svg width="49" height="49" viewBox="0 0 49 49" fill="none" xmlns="http://www.w3.org/2000/svg">
<path d="M11.8858 0.0597748C17.1504 -0.0616204 22.7387 0.0399412 28.0273 0.0370688L34.5901 0.0385047C36.5535 0.0458226 38.7432 0.0264677 40.661 0.407136C42.1914 0.710863 44.6892 2.19804 45.7975 3.21749C47.6829 4.9519 48.9566 8.60744 48.9854 11.1356C49.0114 13.4128 48.9966 15.7618 48.9872 18.062L48.9833 28.0267L48.9886 34.1682C48.9938 36.1358 49.0731 38.1156 48.7255 40.0703C48.4207 41.7846 47.59 43.9837 46.3962 45.3064C45.9162 45.8382 45.2154 46.2978 44.6913 46.7529C42.3043 48.825 40.3106 48.8973 37.2649 48.973L18.6136 48.9874L13.8794 48.9903C9.85806 48.9984 7.21723 49.2588 3.97826 46.4438C-0.441592 42.6026 0.0732698 39.6123 0.0424166 34.2546L0.0315351 23.1443L0.0256125 15.3691C0.0236841 12.8936 -0.145802 10.4895 0.413274 8.06537C0.912572 5.90008 1.84919 5.06919 3.2623 3.36576C3.97316 2.50874 4.84153 2.04272 5.76768 1.51091C7.91879 0.275551 9.43073 0.153677 11.8858 0.0597748ZM34.1721 40.9157C35.9166 40.8616 37.9189 39.7693 39.0919 38.517C39.6096 37.9644 40.5661 36.4907 40.6895 35.7725C41.08 33.4998 40.8616 30.8711 40.8882 28.5551C40.9406 24.0062 40.9269 19.4693 40.8789 14.9233C40.8585 12.9916 39.9805 11.4626 38.5686 10.1635C37.6112 9.27193 36.4195 8.66728 35.1309 8.41916C34.1977 8.2306 32.8083 8.26507 31.8234 8.26254L27.7041 8.2518C23.7529 8.23744 19.123 8.09983 15.2075 8.25926L15.1144 8.26322C10.9131 8.45923 8.35342 11.663 8.13683 15.7037C8.08421 16.6852 8.10529 17.6738 8.10549 18.6568L8.1327 24.4646L8.14179 30.0742C8.13483 33.5774 7.87526 36.5769 10.6774 39.205C11.5035 39.9798 13.0516 40.6313 14.1913 40.845C16.2878 41.0307 18.9257 40.9575 21.0626 40.9339C25.4116 40.8861 29.8404 40.9964 34.1721 40.9157ZM39.3585 6.33384C39.3324 6.74603 39.0728 6.76654 39.2363 7.15692C39.5346 7.86908 40.0051 8.5902 40.8036 8.63C40.868 8.63308 41.6061 8.62959 41.6706 8.63C42.1653 8.50991 42.563 7.91456 42.8267 7.48192C43.5844 6.25429 42.0743 4.95178 40.8036 5.18575C40.0176 5.19837 39.5742 5.70525 39.3585 6.33384Z" fill="white"/>
<path d="M21.9697 12.0616C24.0377 12.0395 26.1058 12.0281 28.174 12.0273C31.7588 12.0234 34.8511 11.5368 37.079 14.8432C37.9153 16.0843 38.0023 17.0505 38 18.5127C37.9977 19.9828 37.9897 21.445 37.9843 22.9079L37.9961 31.5641C37.991 33.9362 37.3253 35.6546 35.3145 36.9892C33.9685 37.8826 32.7361 37.9055 31.1829 37.9454C30.0865 37.9639 28.9899 37.9683 27.8933 37.9584L21.5534 37.9803C19.0123 37.9864 15.7744 38.2753 13.7562 36.4208C13.1983 35.8992 12.3072 34.4266 12.2315 33.6836C11.7607 29.0567 12.2552 24.2033 12.0265 19.5484C11.9102 17.1819 12.1183 15.4466 13.8437 13.7256C15.8604 11.7142 19.3534 12.0609 21.9697 12.0616ZM25.5253 32.9893C29.9313 32.68 33.2521 28.8845 32.9452 24.5085C32.6384 20.1326 28.8198 16.8309 24.4132 17.1311C20.0001 17.4319 16.6696 21.2308 16.977 25.613C17.2842 29.9952 21.1129 33.299 25.5253 32.9893Z" fill="white"/>
<path d="M24.8231 20.0032C27.5701 19.9059 29.8806 22.0445 29.9956 24.791C30.1104 27.5375 27.9867 29.8616 25.241 29.9941C22.4703 30.1278 20.1204 27.9805 20.0045 25.2089C19.8885 22.4375 22.0509 20.1014 24.8231 20.0032Z" fill="white"/>
<path d="M41.0929 5.39868C41.9371 5.39883 42.6152 6.07752 42.6154 6.90747C42.6154 7.73759 41.9373 8.41709 41.0929 8.41724C40.2484 8.41724 39.5695 7.73768 39.5695 6.90747C39.5697 6.07743 40.2485 5.39868 41.0929 5.39868Z" stroke="white"/>
</svg>
