<svg width="196" height="196" viewBox="0 0 196 196" fill="none" xmlns="http://www.w3.org/2000/svg">
<path d="M30 1.5H166C181.74 1.5 194.5 14.2599 194.5 30V166C194.5 181.74 181.74 194.5 166 194.5H30C14.2599 194.5 1.5 181.74 1.5 166V30C1.5 14.2599 14.2599 1.5 30 1.5Z" stroke="black" stroke-width="3"/>
<path d="M87.9245 63.115C93.7935 62.771 95.3892 66.1736 98.1603 70.8451L102.483 78.1779L107.303 86.3894C108.513 88.4099 109.845 90.4953 110.96 92.5632C112.957 89.4431 114.669 85.8118 116.834 82.9439C119.621 79.2528 126.001 79.117 128.864 82.6459C130.686 84.8909 132.68 88.6801 134.201 91.2546L145.181 109.847L156.781 129.481C158.603 132.577 160.541 135.738 162.262 138.9C162.73 139.756 162.989 141.629 162.999 142.626C163.038 145.101 162.162 147.489 160.567 149.251C157.721 152.366 154.868 151.957 151.178 151.955L144.271 151.95L118.567 151.939L65.3351 151.942L48.6872 151.958C45.75 151.962 42.5815 152.091 39.6696 151.876C33.1276 151.394 29.7738 143.002 33.641 137.282C34.814 135.547 36.0319 133.772 37.2358 132.032L43.5471 122.86L64.2079 92.8155L76.4925 74.9535L80.2044 69.5452C82.6335 66.013 83.6611 64.0377 87.9245 63.115ZM73.9195 93.9311C76.5232 95.5351 79.1361 97.1216 81.7578 98.6901C83.1028 99.4985 84.777 100.561 86.142 101.281C88.857 100.523 91.7109 99.3722 94.369 98.7028C96.6548 100.784 98.9226 103.066 101.163 105.221L115.722 119.303C117.792 117.446 120.254 115.575 122.403 113.798C123.187 113.15 125.379 111.333 126.154 110.845C127.6 111.15 129.196 111.294 130.67 111.495C132.049 111.684 135.089 112.174 136.365 112.188L136.503 112.053C136.093 111.101 133.513 107.028 132.837 105.835C129.682 100.269 126.101 94.6971 122.992 89.117L115.063 102.525C114.086 104.186 111.97 108.003 110.914 109.426C110.153 107.875 109.026 106.126 108.133 104.617L103.148 96.1909C101.64 93.639 89.1963 72.3558 88.8377 72.2211C86.8837 75.3242 84.1573 79.0744 82.045 82.1169C79.3646 85.9776 76.6439 90.1465 73.9195 93.9311Z" fill="black"/>
<path d="M121.558 49.015C121.748 48.9734 122.581 49.0302 122.847 49.0442C125.741 49.1903 128.576 49.9878 131.172 51.3866C136.304 54.1849 140.198 59.0994 141.994 65.0404C144.022 71.7616 143.011 77.7631 140.173 83.9055C137.836 79.9345 134.842 74.4152 130.585 72.5861C123.717 69.2153 116.951 70.2519 111.276 75.6744C110.693 74.5149 109.504 72.7307 108.824 71.5439C106.874 68.1407 104.751 64.7998 102.813 61.3904C106.861 53.4296 113.262 49.3086 121.558 49.015Z" fill="black"/>
</svg>
