<svg width="196" height="196" viewBox="0 0 196 196" fill="none" xmlns="http://www.w3.org/2000/svg">
<path d="M30 1.5H166C181.74 1.5 194.5 14.2599 194.5 30V166C194.5 181.74 181.74 194.5 166 194.5H30C14.2599 194.5 1.5 181.74 1.5 166V30C1.5 14.2599 14.2599 1.5 30 1.5Z" stroke="black" stroke-width="3"/>
<path d="M98.084 59.8427C103.829 54.1228 109.628 48.4541 115.48 42.8375L120.605 37.814C121.244 37.197 122.513 35.9602 123.157 35.51C125.688 33.7406 129.375 36.9373 127.635 39.5643C125.704 42.4792 106.558 59.5143 106.226 60.977C106.582 61.2777 112.157 61.1557 113.094 61.1608L130.861 61.1457C133.722 61.1439 137.853 61.0255 140.607 61.3801C144.961 61.9265 148.903 64.1615 151.537 67.577C155.777 72.996 154.934 79.1104 154.928 85.5342L154.92 103.06L154.93 121.216C154.934 130.048 155.999 136.78 147.906 142.762C142.202 146.479 137.766 145.813 131.216 145.811L121.01 145.815L89.766 145.81L68.9157 145.808C64.8928 145.816 60.7549 145.919 56.7439 145.715C54.3062 145.592 52.0407 144.996 49.879 143.874C45.9679 141.812 43.0465 138.339 41.7445 134.202C40.7301 130.954 41.0458 121.346 41.0494 117.474L41.0506 98.9996L41.0517 84.5841C41.0544 79.3078 40.4761 74.3556 43.1227 69.5597C44.246 67.4922 45.8457 65.7054 47.797 64.339C52.1039 61.2878 55.4568 61.1567 60.5432 61.1522L66.9458 61.1543L82.7879 61.1818C84.7223 61.1895 87.4727 61.3084 89.4465 61.1667C89.6241 61.154 89.6462 61.0268 89.7278 60.8698C89.387 60.1717 86.8272 57.8051 86.1158 57.1119L75.1128 46.4045C72.898 44.2589 70.0822 41.8942 68.2648 39.4805C67.0821 37.9098 68.5527 35.8776 70.1409 35.1191C70.9541 35.0299 71.9086 34.9611 72.6024 35.4444C74.5308 36.7879 76.2543 38.7543 77.9364 40.3821L91.4138 53.4883C92.7508 54.7937 96.8421 58.9431 98.084 59.8427ZM92.4468 114.891C94.7065 113.81 96.9595 112.716 99.2057 111.609C101.075 110.703 103.123 109.852 104.792 108.648C108.349 106.083 108.363 100.337 104.521 98.0375C102.425 96.7833 100.172 95.7707 97.9718 94.6983C93.9812 92.7297 89.9763 90.7885 85.9575 88.8747L78.0955 85.0138C75.3304 83.6531 73.0934 82.1764 69.8445 82.5972C66.0893 83.2937 64.2335 86.138 64.2528 89.6192C64.2612 91.1263 64.2393 92.649 64.2451 94.1581L64.2562 102.902L64.244 112.74C64.2381 116.688 63.4759 121.125 67.54 123.485C69.9822 124.903 72.104 124.702 74.5871 123.562C80.5955 120.805 86.4605 117.68 92.4468 114.891ZM125.911 139.458C127.83 138.673 128.301 137.487 128.321 135.573C128.357 132.146 128.343 128.72 128.343 125.293L128.343 105.795L128.345 83.4038C128.345 81.6549 128.525 70.3824 128.064 69.3675C127.724 68.604 127.079 68.0085 126.277 67.718C125.403 67.3929 124.636 67.4125 123.724 67.5411C122.736 68.0012 122.008 68.5512 121.626 69.5834C121.017 71.227 121.333 80.9281 121.332 83.298L121.326 106.78L121.325 125.313C121.325 128.483 121.309 131.697 121.337 134.87C121.342 135.421 121.479 137.251 121.705 137.695C122.501 139.263 124.228 139.695 125.911 139.458ZM142.063 106.873C144.004 106.651 145.393 104.943 145.169 103.056C144.946 101.169 143.195 99.8125 141.253 100.024C139.303 100.236 137.901 101.948 138.125 103.844C138.35 105.739 140.115 107.097 142.063 106.873ZM141.692 126.483C143.624 126.455 145.174 124.924 145.173 123.045C145.172 121.167 143.621 119.637 141.689 119.61C140.414 119.592 139.228 120.244 138.586 121.315C137.943 122.386 137.944 123.711 138.587 124.781C139.231 125.852 140.417 126.502 141.692 126.483ZM142.059 87.2733C143.324 87.1255 144.408 86.3271 144.897 85.184C145.385 84.041 145.203 82.7305 144.42 81.7547C143.637 80.7788 142.373 80.289 141.114 80.4728C139.207 80.7512 137.883 82.4673 138.141 84.326C138.4 86.1847 140.145 87.4972 142.059 87.2733Z" fill="black"/>
</svg>
